<svg xmlns="http://www.w3.org/2000/svg" fill-rule="evenodd" stroke-linejoin="round" stroke-miterlimit="2" clip-rule="evenodd" viewBox="0 0 512 512" id="space">
  <path d="M374.258,438.872C365.098,445.745 358.53,452.659 355.27,458.696C352.312,464.173 351.877,469.197 353.596,473.34C355.664,478.325 360.994,482.04 369.3,483.449C375.418,484.487 383.391,484.335 392.559,483.014C401.769,490.896 413.728,495.66 426.791,495.66C454.514,495.66 477.265,474.204 479.329,447.007C486.733,441.453 492.467,435.918 496.052,430.856C500.921,423.981 502.055,417.584 499.986,412.599C498.286,408.502 494.493,405.29 488.644,403.504C482.052,401.492 472.434,401.233 460.976,402.886C451.771,395.026 439.831,390.279 426.791,390.279C399.089,390.279 376.351,411.704 374.258,438.872ZM467.814,454.817C459.11,460.188 449.019,465.373 437.986,469.951C426.957,474.528 416.161,478.009 406.216,480.377C412.321,483.744 419.334,485.66 426.791,485.66C446.244,485.66 462.675,472.622 467.814,454.817ZM374.752,451.273C369.807,455.524 366.121,459.648 364.069,463.448C362.828,465.746 362.111,467.769 362.832,469.508C363.393,470.859 364.758,471.696 366.505,472.397C369.243,473.495 372.828,474.03 377.057,474.136C379.277,474.192 381.655,474.126 384.171,473.941C379.384,467.368 376.08,459.647 374.752,451.273ZM469.468,441.863C468.88,418.812 449.983,400.279 426.791,400.279C403.229,400.279 384.1,419.408 384.1,442.97C384.1,454.373 388.581,464.739 395.877,472.4C407.348,470.304 420.549,466.36 434.154,460.715C447.764,455.068 459.882,448.506 469.468,441.863ZM69.025,351.64L55.02,358.75C53.341,359.602 52.283,361.326 52.283,363.209C52.283,365.091 53.341,366.815 55.02,367.667L73.935,377.27C73.935,377.27 84.19,396.864 84.19,396.864C85.053,398.512 86.76,399.545 88.62,399.545C90.481,399.545 92.187,398.512 93.05,396.864L97.775,387.837C134.792,424.973 185.997,447.97 242.531,447.97C272.499,447.97 300.969,441.508 326.626,429.901C327.13,429.76 327.602,429.542 328.028,429.26C398.217,396.859 446.965,325.845 446.965,243.535C446.965,213.784 440.595,185.508 429.146,159.995L431.721,155.074C431.721,155.074 450.636,145.471 450.636,145.471C452.316,144.619 453.373,142.895 453.373,141.012C453.373,139.129 452.314,137.405 450.634,136.553L431.701,126.952C431.701,126.952 421.468,107.361 421.468,107.361C420.606,105.711 418.899,104.677 417.038,104.676C415.177,104.675 413.469,105.708 412.606,107.358L405.743,120.471C385.506,93.681 358.826,72.022 328.024,57.808C327.6,57.528 327.13,57.311 326.628,57.17C300.974,45.564 272.501,39.101 242.531,39.101C129.701,39.101 38.097,130.705 38.097,243.535C38.097,283.216 49.428,320.272 69.025,351.64ZM297.471,56.985C280.041,51.854 261.605,49.101 242.531,49.101C193.544,49.101 148.763,67.257 114.563,97.196C121.165,104.164 126.16,112.066 124.235,122.316C122.777,130.074 117.425,135.341 111.581,140.365C107.328,144.022 102.701,147.468 101.021,152.987C98.248,162.103 101.896,172.054 104.089,181.772C106.839,193.957 107.682,205.73 98.577,215.819C91.414,223.757 81.555,226.032 71.486,227.901C63.498,229.385 55.334,230.497 49.399,236.451C49.035,236.817 48.628,237.114 48.194,237.343C48.129,239.401 48.097,241.464 48.097,243.535C48.097,280.496 58.432,315.062 76.369,344.498L84.19,329.553C85.053,327.904 86.761,326.871 88.622,326.872C90.483,326.872 92.19,327.907 93.052,329.557C93.052,329.557 103.285,349.148 103.285,349.148L122.218,358.749C123.898,359.601 124.957,361.324 124.957,363.207C124.957,365.091 123.9,366.814 122.22,367.667C122.22,367.667 103.305,377.27 103.305,377.27L102.648,378.525C138.018,415.167 187.633,437.97 242.531,437.97C261.611,437.97 280.053,435.215 297.472,430.086L276.674,430.086C253.874,430.086 235.363,411.575 235.363,388.775C235.363,365.976 253.874,347.465 276.674,347.465L282.093,347.465C299.373,347.465 313.403,333.436 313.403,316.155C313.403,298.875 299.373,284.845 282.093,284.845L183.46,284.845C160.66,284.845 142.15,266.335 142.15,243.535C142.15,220.736 160.66,202.225 183.46,202.225L342.79,202.225C360.071,202.225 374.1,188.196 374.1,170.915C374.1,153.635 360.071,139.605 342.79,139.605L248.493,139.605C225.693,139.605 207.183,121.095 207.183,98.295C207.183,75.496 225.693,56.985 248.493,56.985L297.471,56.985ZM478.829,434.66C480.733,433.013 482.456,431.379 483.98,429.771C486.892,426.702 489.045,423.786 490.201,421.072C490.939,419.341 491.311,417.783 490.75,416.431C490.043,414.727 488.157,413.811 485.724,413.069C481.57,411.8 475.992,411.488 469.408,411.994C474.196,418.568 477.5,426.288 478.829,434.66ZM324.039,66.985L248.493,66.985C231.212,66.985 217.183,81.015 217.183,98.295C217.183,115.576 231.212,129.605 248.493,129.605L342.79,129.605C365.59,129.605 384.1,148.116 384.1,170.915C384.1,193.715 365.59,212.225 342.79,212.225L183.46,212.225C166.179,212.225 152.15,226.255 152.15,243.535C152.15,260.816 166.179,274.845 183.46,274.845L282.093,274.845C304.893,274.845 323.403,293.356 323.403,316.155C323.403,338.955 304.893,357.465 282.093,357.465L276.674,357.465C259.393,357.465 245.363,371.495 245.363,388.775C245.363,406.056 259.393,420.086 276.674,420.086L324.04,420.086C345.335,410.227 364.55,396.629 380.836,380.143C377.882,373.186 374.901,365.865 373.856,358.617C372.597,349.892 373.972,341.256 380.708,333.235C384.231,329.039 388.554,325.831 392.667,322.435C396.022,319.665 399.248,316.773 401.338,312.63C404.554,306.255 405.783,299.719 406.705,293.124C407.731,285.796 408.382,278.393 410.368,270.989C411.877,265.369 415.451,257.947 420.344,253.152C423.89,249.677 428.118,247.542 432.684,247.547C434.053,247.548 435.465,247.736 436.911,248.157C436.947,246.622 436.965,245.081 436.965,243.535C436.965,218.076 432.062,193.752 423.147,171.457L421.466,174.668C420.603,176.317 418.897,177.35 417.036,177.35C415.176,177.35 413.469,176.317 412.606,174.668C412.606,174.668 402.351,155.074 402.351,155.074L383.436,145.471C381.757,144.619 380.699,142.896 380.699,141.013C380.699,139.13 381.757,137.407 383.436,136.554L399.268,128.517C379.884,102.161 354.019,80.863 324.039,66.985ZM92.562,376.231L95.186,371.216C95.668,370.295 96.426,369.547 97.353,369.076L108.907,363.211L97.333,357.342C96.404,356.87 95.645,356.121 95.163,355.197C95.163,355.197 88.616,342.663 88.616,342.663L82.054,355.201C81.572,356.122 80.814,356.87 79.887,357.341C79.887,357.341 68.329,363.209 68.329,363.209L79.887,369.076C80.814,369.547 81.572,370.295 82.054,371.216C82.054,371.216 88.62,383.762 88.62,383.762L91.728,377.824C91.904,377.257 92.182,376.716 92.562,376.231ZM436.369,258.856C435.075,257.994 433.856,257.548 432.675,257.547C430.654,257.545 428.913,258.756 427.343,260.294C423.712,263.853 421.146,269.41 420.027,273.581C416.073,288.316 417.378,303.036 410.266,317.134C407.521,322.575 403.44,326.508 399.034,330.146C395.385,333.159 391.492,335.943 388.366,339.666C382.714,346.395 382.713,353.796 384.535,361.121C385.457,364.825 386.832,368.516 388.316,372.134C415.42,341.438 432.99,302.126 436.369,258.856ZM107.217,103.965C75.082,135.125 53.658,177.276 49.036,224.328C55.265,220.837 62.454,219.408 69.661,218.069C77.564,216.602 85.531,215.349 91.153,209.119C97.844,201.705 96.355,192.928 94.334,183.973C91.757,172.553 88.195,160.789 91.454,150.076C93.7,142.696 99.374,137.672 105.062,132.782C109.16,129.259 113.385,125.91 114.407,120.47C115.697,113.603 111.728,108.596 107.217,103.965ZM437.323,141.015L425.769,146.881C424.842,147.351 424.084,148.099 423.602,149.021L417.036,161.567C417.036,161.567 410.47,149.021 410.47,149.021C409.988,148.099 409.231,147.351 408.303,146.881L396.745,141.013C396.745,141.013 408.303,135.145 408.303,135.145C409.231,134.674 409.988,133.926 410.47,133.005L417.032,120.467C417.032,120.467 423.579,133.002 423.579,133.002C424.061,133.925 424.82,134.675 425.749,135.146L437.323,141.015ZM50.684,16.34C28.782,16.34 11,34.122 11,56.024C11,77.926 28.782,95.708 50.684,95.708C72.587,95.708 90.368,77.926 90.368,56.024C90.368,34.122 72.587,16.34 50.684,16.34ZM50.684,26.34C67.067,26.34 80.368,39.641 80.368,56.024C80.368,72.407 67.067,85.708 50.684,85.708C34.301,85.708 21,72.407 21,56.024C21,39.641 34.301,26.34 50.684,26.34Z"></path>
</svg>
