<svg xmlns="http://www.w3.org/2000/svg" width="64" height="64" id="space">
  <g transform="translate(0 -988.362)">
    <circle cx="32" cy="1020.362" r="31.5" fill="#34485c" stroke="#34485c" stroke-dashoffset="1.5" stroke-linecap="round" stroke-linejoin="round" color="#000" overflow="visible"></circle>
    <path fill="#fff" d="m40.13 998.242-.621-2.38-2.38-.62 2.38-.62.62-2.38.62 2.38 2.38.62-2.38.62zM15 1007.355l-.413-1.586-1.587-.414 1.587-.413.413-1.587.414 1.587 1.586.413-1.586.414zM10 1025.112l-.568-2.181-2.182-.569 2.182-.568.568-2.182.568 2.182 2.182.568-2.182.569zM55 1022.862l-.517-1.983-1.984-.517 1.984-.516.516-1.984.517 1.984 1.983.516-1.983.517zM16.502 1001.363l-.31-1.19-1.19-.31 1.19-.31.31-1.19.31 1.19 1.19.31-1.19.31zM53.125 1039.23l-.388-1.488-1.487-.388 1.487-.387.388-1.488.387 1.488 1.488.387-1.488.388zM50.001 1008.862l-.31-1.19-1.19-.31 1.19-.31.31-1.19.31 1.19 1.19.31-1.19.31zM27 1050.362l-.517-1.983-1.983-.517 1.983-.517.517-1.983.517 1.983 1.983.517-1.983.517z" color="#000" overflow="visible"></path>
    <path fill="#e9eded" fill-rule="evenodd" d="M43.266 1032.202v4.584h.015c-7.213 2.1-15.438 2.104-22.655.014l-.03-.014v-4.667"></path>
    <path fill="#cad1d8" fill-rule="evenodd" d="M43.266 1028.935v4.584h.015c-7.213 2.1-15.438 2.104-22.655.014l-.03-.014v-4.667"></path>
    <path fill="#f17f53" d="M47.403 1018.367a1.33 1.33 0 0 1 1.334 1.334v1.333h.667c.369 0 .666.297.666.667v1.333c0 .37-.297.667-.666.667h-.667v1.334a1.33 1.33 0 0 1-1.334 1.333 1.33 1.33 0 0 1-1.333-1.333v-5.334a1.33 1.33 0 0 1 1.333-1.334zm-30.807 0a1.33 1.33 0 0 0-1.334 1.334v1.333h-.666a.665.665 0 0 0-.667.667v1.333c0 .37.297.667.667.667h.666v1.334a1.33 1.33 0 0 0 1.334 1.333 1.33 1.33 0 0 0 1.334-1.333v-5.334a1.33 1.33 0 0 0-1.334-1.334z" color="#000" overflow="visible"></path>
    <path fill="#e9eded" d="M47.267 1030.688V1017.7a15.335 15.335 0 1 0-30.671 0V1031.035c9.335 4.001 21.336 4.001 30.67 0z" color="#000" overflow="visible"></path>
    <path fill="#34485c" fill-rule="evenodd" d="M47.17 1016.115c-9.335-2.88-21.209-2.88-30.544 0l-.03 12.087c9.335 2.881 21.336 2.881 30.67 0-.031-4.029.196-9.168-.096-12.087z"></path>
    <path fill="#cad1d8" d="M31.949 1006.864c-.167 0-.333.024-.5.031v5.977a.5.5 0 1 0 1 0v-5.977c-.167-.01-.333-.03-.5-.03zm-7.037 2.405c-.258.2-.492.423-.73.642a.5.5 0 0 0 .095.125 3.999 3.999 0 0 1 1.172 2.828.5.5 0 0 0 .508.508.5.5 0 0 0 .492-.508 5 5 0 0 0-1.465-3.535.5.5 0 0 0-.072-.06zm14.074 0a.5.5 0 0 0-.072.06 5 5 0 0 0-1.465 3.536.5.5 0 0 0 .492.508.5.5 0 0 0 .508-.508c0-1.061.421-2.078 1.172-2.828a.5.5 0 0 0 .093-.125c-.238-.219-.47-.443-.728-.643z" color="#000" font-family="sans-serif" font-weight="400" overflow="visible" style="text-indent:0;text-align:start;line-height:normal;text-transform:none;block-progression:tb" transform="translate(-10.673 -340.309)scale(1.33352)"></path>
  </g>
</svg>
